<svg width="739" height="782" viewBox="0 0 739 782" fill="none" xmlns="http://www.w3.org/2000/svg">
<path fill-rule="evenodd" clip-rule="evenodd" d="M739 134.445V782H56.8503C-13.3836 641.761 -18.1015 484.827 40.5422 351.87C136.902 133.402 434.286 47.2416 739 134.445Z" fill="#28A745"/>
<path fill-rule="evenodd" clip-rule="evenodd" d="M739 53.9617V635.672C662.758 660.41 574.039 668.862 481.522 656.393C232.154 622.784 49.6273 449.91 73.8388 270.269C98.0502 90.6279 319.831 -27.7543 569.2 5.85487C630.538 14.1218 687.832 30.8147 739 53.9617Z" fill="#28A745" fill-opacity="0.3"/>
<path fill-rule="evenodd" clip-rule="evenodd" d="M739 0.333252V654.734C495.557 617.434 319.002 447.132 342.839 270.269C363.777 114.913 532.479 5.37205 739 0.333252Z" fill="#28A745" fill-opacity="0.5"/>
</svg>
